<?xml version="1.0" encoding="utf-8"?>
<!-- Generator: Adobe Illustrator 16.0.0, SVG Export Plug-In . SVG Version: 6.00 Build 0)  -->
<!DOCTYPE svg PUBLIC "-//W3C//DTD SVG 1.1//EN" "http://www.w3.org/Graphics/SVG/1.1/DTD/svg11.dtd">
<svg version="1.1" id="Layer_1" xmlns:sketch="http://www.bohemiancoding.com/sketch/ns"
	 xmlns="http://www.w3.org/2000/svg" xmlns:xlink="http://www.w3.org/1999/xlink" x="0px" y="0px" width="56px" height="86px"
	 viewBox="0 0 56 86" enable-background="new 0 0 56 86" xml:space="preserve">
<title>mouse</title>
<desc>Created with Sketch.</desc>
<path id="Path" sketch:type="MSShapeGroup" fill="none" stroke="#DEDEDE" stroke-width="5" d="M3,43V27.992C3,14.189,14.19,3,28,3
	l0,0c13.807,0,25,11.195,25,24.992V43v15.008C53,71.811,41.811,83,28,83l0,0C14.193,83,3,71.813,3,58.004V34.5V43z"/>
<path id="Path_1_" sketch:type="MSShapeGroup" fill="#DEDEDE" d="M25,29v-3c0-1.657,1.347-3,3-3l0,0c1.656,0,3,1.347,3,3v3v3
	c0,1.657-1.348,3-3,3l0,0c-1.657,0-3-1.334-3-3.001v-4.274V29z"/>
</svg>
